<svg xmlns="http://www.w3.org/2000/svg" xmlns:xlink="http://www.w3.org/1999/xlink" viewBox="0 0 1280 360"><defs><style>.cls-1,.cls-5{fill:none;}.cls-2{isolation:isolate;}.cls-3{clip-path:url(#clip-path);}.cls-4{mix-blend-mode:overlay;fill:url(#linear-gradient);}.cls-5{stroke:#fff;}.cls-6{fill:url(#linear-gradient-2);}.cls-7{fill:url(#linear-gradient-3);}.cls-8{fill:url(#linear-gradient-4);}.cls-9{fill:url(#linear-gradient-5);}.cls-10{fill:url(#linear-gradient-6);}</style><clipPath id="clip-path"><rect class="cls-1" width="1280" height="360"/></clipPath><linearGradient id="linear-gradient" x1="-41.96" y1="168.28" x2="1321.39" y2="168.28" gradientUnits="userSpaceOnUse"><stop offset="0" stop-color="#096a88"/><stop offset="0.46" stop-color="#f26739"/><stop offset="0.74" stop-color="#48c2c5"/><stop offset="0.99" stop-color="#e4efc9"/></linearGradient><linearGradient id="linear-gradient-2" x1="1804.29" y1="256.05" x2="513.15" y2="-375.33" xlink:href="#linear-gradient"/><linearGradient id="linear-gradient-3" x1="581.94" y1="101.89" x2="127.85" y2="452.24" xlink:href="#linear-gradient"/><linearGradient id="linear-gradient-4" x1="-70.17" y1="-157.49" x2="629.89" y2="-157.49" xlink:href="#linear-gradient"/><linearGradient id="linear-gradient-5" x1="77" y1="399.03" x2="309.49" y2="-18.32" xlink:href="#linear-gradient"/><linearGradient id="linear-gradient-6" x1="756.5" y1="229.87" x2="1345.27" y2="229.87" xlink:href="#linear-gradient"/></defs><title>11sale</title><g class="cls-2"><g id="Layer_1" data-name="Layer 1"><g class="cls-3"><rect class="cls-4" x="-41.96" y="-23.44" width="1363.35" height="383.44"/><path class="cls-5" d="M1007.46,313.47V136.29H943.77v-38c38.78-.4,65.73-22,71-49.8h48.59V313.47Z"/><path class="cls-6" d="M1525.41,355.6s-173.94,48.52-200.86-158.78c-5-38.51-30-46.28-49.27-30.42-51.64,42.44-125.6,25.62-177.72-16.22-17.75-14.25-33.41-31.7-43.92-52.94C1016.8,22.76,939.44,53.77,939.44,53.77s-63,15.61-89.06-51.57C831-47.82,797.5-91.29,752.17-120c-35.38-22.4-78.79-41.07-125.22-41.07h898.46Z"/><path class="cls-7" d="M-14.27-167-71.07,360,699.85,636l513.52-292.38S980.23,226.9,877,259.59c-202.09,64-254-30.15-284-69.29-16.87-22.08-37.76-40.87-62.22-54.25-30.89-16.91-74-30.51-125.85-20.57C340.78,127.79,298.45,53.7,274.6-8.76,231.51-121.67,46.46-58.45-6.32-168.37-7.47-170.76-11.59-167.47-14.27-167Z"/><path class="cls-5" d="M283.74,312.26V135.08H220.05v-38c38.78-.4,65.73-22,71-49.8h48.59V312.26Z"/><path class="cls-8" d="M-70.17-694.73-57.29,379.75l687.18-8.24S577,222.78,348.11,192.57c-189.59-25-197-170.21-193.88-219.37,1.73-27.73-1.72-55.61-11.42-81.76-12.24-33-35.89-71.56-81.55-98-56.57-32.79-40-116.5-17-179.29C85.71-499.4-95.46-573-63.27-690.57-62.56-693.14-67.84-693.35-70.17-694.73Z"/><path class="cls-5" d="M112.2,313.07V135.89H48.52v-38c38.78-.4,65.73-22,71-49.8h48.59V313.07Z"/><path class="cls-9" d="M-1.36,160.81s109.24-19.87,152.91,79.07S261.27,360,309.81,360H-1.36Z"/><path class="cls-5" d="M1176.32,313.47V136.29h-63.68v-38c38.78-.4,65.73-22,71-49.8h48.59V313.47Z"/><path class="cls-10" d="M756.5,360s58.75-4.46,93-91.56S983.73,210,996.69,222.94c0,0,38.46,16,58.08-15s63.73-26.35,79.68-10.41,32.93,12,36.44-5.48c17.5-87.24,151.82-106.09,174.39-83.52L1345,360Z"/></g></g></g></svg>