<svg xmlns="http://www.w3.org/2000/svg" xmlns:xlink="http://www.w3.org/1999/xlink" viewBox="0 0 360 560"><defs><style>.cls-1,.cls-7{fill:none;}.cls-2{isolation:isolate;}.cls-3{fill:#fff;}.cls-4{fill:#44c1c1;}.cls-5{clip-path:url(#clip-path);}.cls-6{mix-blend-mode:overlay;fill:url(#linear-gradient);}.cls-7{stroke:#fff;stroke-width:0.52px;}.cls-8{fill:url(#linear-gradient-2);}.cls-9{fill:url(#linear-gradient-3);}.cls-10{fill:url(#linear-gradient-4);}.cls-11{fill:url(#linear-gradient-5);}.cls-12{fill:url(#linear-gradient-6);}</style><clipPath id="clip-path"><rect class="cls-1" width="360" height="560"/></clipPath><linearGradient id="linear-gradient" x1="3313.53" y1="274.51" x2="4801.82" y2="274.51" gradientTransform="translate(-3895.58 -51.83)" gradientUnits="userSpaceOnUse"><stop offset="0" stop-color="#096a88"/><stop offset="0.46" stop-color="#f26739"/><stop offset="0.74" stop-color="#48c2c5"/><stop offset="0.99" stop-color="#e4efc9"/></linearGradient><linearGradient id="linear-gradient-2" x1="675.99" y1="186.21" x2="-143.91" y2="-214.73" gradientTransform="matrix(1, 0, 0, 1, 0, 0)" xlink:href="#linear-gradient"/><linearGradient id="linear-gradient-3" x1="135.41" y1="536.62" x2="-366.87" y2="-4.87" gradientTransform="matrix(1, 0, 0, 1, 0, 0)" xlink:href="#linear-gradient"/><linearGradient id="linear-gradient-4" x1="295.23" y1="430.22" x2="57.11" y2="613.94" gradientTransform="matrix(1, 0, 0, 1, 0, 0)" xlink:href="#linear-gradient"/><linearGradient id="linear-gradient-5" x1="-46.73" y1="294.21" x2="320.37" y2="294.21" gradientTransform="matrix(1, 0, 0, 1, 0, 0)" xlink:href="#linear-gradient"/><linearGradient id="linear-gradient-6" x1="30.45" y1="586.04" x2="152.36" y2="367.19" gradientTransform="matrix(1, 0, 0, 1, 0, 0)" xlink:href="#linear-gradient"/></defs><title>11sale_mobile</title><g class="cls-2"><g id="Layer_1" data-name="Layer 1"><rect class="cls-3" x="832.68" y="41.3" width="30.65" height="1392.05" transform="translate(809.65 -385.75) rotate(47.04)"/><rect class="cls-4" x="853.57" y="63.73" width="30.65" height="1392.05" transform="translate(832.71 -393.89) rotate(47.04)"/><g class="cls-5"><rect class="cls-6" x="-582.05" y="13.39" width="1488.29" height="418.58" transform="translate(384.77 60.59) rotate(90)"/><path class="cls-7" d="M207.87,192V99.14H174.47V79.23c20.34-.21,34.46-11.56,37.25-26.11H237.2V192Z"/><path class="cls-8" d="M498.9,249.43S388.45,280.25,371.35,148.61c-3.18-24.46-19-29.39-31.29-19.32-32.79,26.95-79.76,16.27-112.85-10.3-11.27-9.05-21.22-20.13-27.89-33.62-23.4-47.3-72.53-27.61-72.53-27.61S86.79,67.68,70.24,25C57.92-6.75,36.66-34.35,7.88-52.58c-22.47-14.23-50-26.08-79.52-26.08H498.9Z"/><path class="cls-7" d="M297.81,191.63V98.72H264.42V78.8c20.34-.21,34.46-11.56,37.25-26.11h25.48V191.63Z"/><path class="cls-9" d="M-551.62,557.43s101-7.66,159.73-157.34,230.75-100.45,253-78.19c0,0,66.09,27.44,99.81-25.86S70.45,250.76,97.85,278.16s56.59,20.61,62.62-9.42C190.54,118.83,421.35,86.43,460.14,125.22l-.49,432.22Z"/><path class="cls-10" d="M-17.41,289.24-47.2,565.57,357.06,710.28,626.33,557s-122.25-61.19-176.38-44c-106,33.57-133.22-15.81-148.9-36.34a104.4,104.4,0,0,0-32.63-28.45c-16.2-8.87-38.81-16-66-10.79-33.67,6.46-55.87-32.39-68.37-65.15C111.47,313,14.43,346.14-13.25,288.51-13.85,287.25-16,289-17.41,289.24Z"/><path class="cls-7" d="M138.85,540.54V447.63H105.46V427.72c20.34-.21,34.46-11.56,37.25-26.11h25.48V540.54Z"/><path class="cls-11" d="M-46.73,12.5-40,575.93l360.34-4.32s-27.71-78-147.76-93.83c-99.41-13.12-103.28-89.25-101.67-115a104.4,104.4,0,0,0-6-42.87c-6.42-17.31-18.82-37.52-42.76-51.41-29.66-17.2-21-61.09-8.92-94C35,114.93-60,76.34-43.11,14.68-42.74,13.33-45.5,13.22-46.73,12.5Z"/><path class="cls-7" d="M48.91,541V448.05H15.51V428.14C35.85,427.93,50,416.58,52.76,402H78.24V541Z"/><path class="cls-12" d="M-10.64,461.12s57.28-10.42,80.18,41.46,57.53,63,83,63H-10.64Z"/><rect class="cls-1" x="-2.07" y="331.39" width="812.83" height="228.61"/></g></g></g></svg>